<?xml version="1.0" encoding="UTF-8"?>
<svg version="1.1" xmlns="http://www.w3.org/2000/svg" width="530" height="471">
<path d="M0 0 C0.93946976 -0.00137466 1.87893951 -0.00274933 2.84687805 -0.00416565 C3.87042892 -0.00057037 4.8939798 0.0030249 5.94854736 0.00672913 C7.0317778 0.0065831 8.11500824 0.00643707 9.23106384 0.00628662 C12.81301879 0.00698352 16.3949218 0.01476557 19.97686768 0.02259827 C22.45979789 0.02446324 24.94272847 0.02588677 27.42565918 0.02688599 C33.29396077 0.03031457 39.16224317 0.03819682 45.03053689 0.04823548 C52.36811289 0.06051478 59.70568999 0.06588155 67.04327393 0.07142639 C80.13052298 0.08215276 93.21775665 0.09902966 106.30499268 0.12025452 C109.64340843 7.77385013 109.64340843 7.77385013 110.26202393 11.67494202 C110.4721814 12.94482971 110.4721814 12.94482971 110.68658447 14.2403717 C110.82878418 15.14948303 110.97098389 16.05859436 111.11749268 16.99525452 C111.45190461 19.01894471 111.78794784 21.04236575 112.12530518 23.06556702 C112.30867432 24.17448303 112.49204346 25.28339905 112.68096924 26.42591858 C113.76385465 32.83680357 114.92355424 39.23371834 116.08609009 45.63056946 C116.48867242 47.84920107 116.88780057 50.06843545 117.28668213 52.28773499 C117.53608056 53.66423511 117.78566501 55.04070156 118.03546143 56.41712952 C118.36646851 58.2477594 118.36646851 58.2477594 118.7041626 60.1153717 C119.24682465 63.1525525 119.24682465 63.1525525 120.30499268 66.12025452 C121.07021425 66.1198748 121.83543583 66.11949508 122.62384593 66.11910385 C167.93351064 66.09674681 213.24317475 66.07957861 258.55284386 66.06918919 C263.98796769 66.06793842 269.42309152 66.0666441 274.85821533 66.06532288 C276.48133222 66.06492941 276.48133222 66.06492941 278.13723935 66.064528 C295.67957623 66.06017155 313.22190984 66.05228414 330.76424478 66.04310172 C348.75179162 66.03376449 366.73933675 66.02819876 384.72688591 66.02616602 C395.83449774 66.02479094 406.94210035 66.02044114 418.04970933 66.01233805 C425.65695871 66.00706973 433.26420328 66.00545042 440.87145434 66.00675314 C445.26653676 66.00739638 449.66160301 66.00638052 454.05668259 66.00104904 C458.07468079 65.99621032 462.09265186 65.99591901 466.11065127 65.99935562 C467.56962795 65.99978085 469.02860628 65.99848909 470.48757969 65.99537133 C472.46018551 65.99139872 474.43280148 65.99410183 476.40540886 65.99720669 C477.50431949 65.99682697 478.60323013 65.99644725 479.73544109 65.99605602 C482.30499268 66.12025452 482.30499268 66.12025452 484.30499268 67.12025452 C483.83579071 75.02414295 482.20380091 82.57596986 480.38259888 90.25883484 C479.47116209 94.10540154 478.58108641 97.95693895 477.68780518 101.80775452 C477.49655563 102.62975845 477.30530609 103.45176239 477.10826111 104.29867554 C474.96611863 113.52915116 472.925106 122.78173676 470.88238525 132.03462219 C467.53039316 147.21610262 464.13396807 162.38377291 460.54888916 177.51210022 C457.52179937 190.30943615 454.88640596 203.16326268 452.42935181 216.0796051 C449.58300834 231.00426737 446.50190718 245.84364722 442.91192627 260.61048889 C442.51684469 262.2442132 442.13371081 263.88088835 441.76446533 265.52064514 C440.52278632 270.90246087 440.52278632 270.90246087 438.30499268 273.12025452 C436.26122749 273.36865151 436.26122749 273.36865151 433.68603325 273.36635017 C432.21703396 273.37232332 432.21703396 273.37232332 430.71835792 273.37841713 C429.63471808 273.37259145 428.55107824 273.36676577 427.43460083 273.36076355 C426.28949732 273.3624724 425.14439381 273.36418125 423.96459019 273.36594188 C420.7766082 273.36867508 417.58878724 273.36239228 414.40082431 273.35238576 C410.96660783 273.34377404 407.53239929 273.3466698 404.09817505 273.34819031 C398.14498984 273.34924061 392.19184837 273.3429489 386.23867416 273.33171463 C377.63131848 273.31548218 369.023984 273.31025394 360.41661467 273.30773865 C346.45280029 273.30335799 332.48900923 273.29003887 318.52520752 273.27113342 C304.95815142 273.25278419 291.39110164 273.23862301 277.82403564 273.2301178 C276.98820233 273.22959235 276.15236901 273.2290669 275.29120742 273.22852553 C271.09820878 273.22591552 266.90521009 273.22338809 262.71221137 273.22090173 C227.90978835 273.2001577 193.10739304 273.16477377 158.30499268 273.12025452 C159.29499268 280.05025452 159.29499268 280.05025452 160.30499268 287.12025452 C162.35938364 287.11472376 162.35938364 287.11472376 164.45527744 287.10908127 C196.9668985 287.0224493 229.47849125 286.9564922 261.99020154 286.9159932 C265.99186063 286.91099037 269.99351949 286.90581308 273.99517822 286.90052795 C274.79183619 286.89947871 275.58849416 286.89842947 276.40929329 286.89734843 C289.30855574 286.87994335 302.20774689 286.84840511 315.10696704 286.81164333 C328.34283164 286.77423676 341.57865889 286.75201927 354.81457418 286.74390054 C362.98182403 286.73841216 371.14887232 286.72107791 379.31606012 286.68858865 C385.57876295 286.66494459 391.84131213 286.66243397 398.1040535 286.66782379 C400.67315474 286.66672215 403.24226353 286.65874968 405.81131935 286.64343262 C409.31678086 286.62355541 412.82137734 286.62830806 416.32685852 286.63923645 C417.34535183 286.62758508 418.36384513 286.61593372 419.41320187 286.60392928 C425.58564032 286.65600374 429.28367055 287.44822008 434.30499268 291.12025452 C437.85158195 295.37094739 438.95936917 299.38937506 438.69561768 304.90931702 C437.88776772 309.48174777 435.69913073 312.81325009 432.30499268 315.99525452 C428.50244071 318.13419 424.93633453 318.25083562 420.62634277 318.2784729 C419.46701233 318.28826172 418.30768188 318.29805054 417.11322021 318.30813599 C415.84393677 318.31389145 414.57465332 318.31964691 413.26690674 318.32557678 C411.91251329 318.3351629 410.55812278 318.34517341 409.20373535 318.35557556 C405.51547282 318.38265724 401.82719762 318.40367655 398.13889027 318.42357755 C394.23913693 318.44558589 390.33942082 318.47293873 386.43969727 318.49963379 C379.85216992 318.54396915 373.26462834 318.5846862 366.67706299 318.62294006 C359.9934487 318.6617615 353.30985909 318.70320021 346.62628174 318.74794006 C345.81302854 318.75338369 344.99977534 318.75882731 344.16187811 318.76443589 C342.52606899 318.77539483 340.89025989 318.78635608 339.2544508 318.79731965 C289.17195588 319.13154352 239.11225497 319.14992848 189.03015137 318.6566925 C182.71943476 318.59496364 176.40869721 318.53545297 170.09796143 318.47572327 C157.83361777 318.35933329 145.56929813 318.24059903 133.30499268 318.12025452 C132.12963971 313.55724427 131.04922277 309.06245021 130.31793213 304.40419006 C129.30643885 298.11693003 128.212118 291.8470982 127.09796143 285.57728577 C126.89068924 284.41057846 126.68341705 283.24387115 126.46986389 282.04180908 C126.03241408 279.58196496 125.59455708 277.12219323 125.15631104 274.66249084 C124.71794557 272.19948637 124.28074806 269.73627371 123.8447876 267.27284241 C121.41378935 253.53654907 118.8927162 239.82819957 116.12286377 226.15596008 C113.96924649 215.51849249 111.97508315 204.85319564 109.99249268 194.18275452 C109.21101332 189.98593943 108.42832793 185.78935066 107.64483643 181.59291077 C107.44955353 180.5466452 107.25427063 179.50037964 107.05307007 178.42240906 C105.76648784 171.54482265 104.45365331 164.67272393 103.12139893 157.80384827 C99.91143757 141.22961836 96.85123009 124.69434135 94.38482666 107.99061584 C91.53782117 89.32586874 87.65113157 70.83103789 83.92857361 52.32524109 C82.64746933 45.93615264 81.45030517 39.53506303 80.30499268 33.12025452 C79.21140442 33.11216766 78.11781616 33.10408081 76.99108887 33.0957489 C66.69092937 33.01830356 56.39090223 32.93056828 46.09091568 32.83272743 C40.79543941 32.78275662 35.49998317 32.73642655 30.20440674 32.69837952 C25.09500723 32.66153677 19.98577494 32.6151794 14.87651825 32.56219101 C12.92609334 32.54364172 10.97563258 32.52853574 9.02515411 32.51691055 C6.29566785 32.50005736 3.56656502 32.47102444 0.83721924 32.43910217 C0.02873535 32.43694199 -0.77974854 32.4347818 -1.61273193 32.43255615 C-5.43590455 32.37534018 -8.4549879 32.28523358 -11.69500732 30.12025452 C-11.69500732 29.46025452 -11.69500732 28.80025452 -11.69500732 28.12025452 C-12.35500732 28.12025452 -13.01500732 28.12025452 -13.69500732 28.12025452 C-13.69500732 27.46025452 -13.69500732 26.80025452 -13.69500732 26.12025452 C-14.35500732 26.12025452 -15.01500732 26.12025452 -15.69500732 26.12025452 C-18.04077882 19.85225218 -19.47027793 15.55383637 -16.69500732 9.12025452 C-14.7250425 4.99270916 -12.80578175 3.12551033 -8.69500732 1.12025452 C-5.73583322 0.21570901 -3.0877954 -0.00349298 0 0 Z M126.30499268 98.12025452 C124.81723606 101.09576776 125.82987422 103.05637102 126.58624268 106.26478577 C128.1736859 113.34453115 129.36610191 120.44780118 130.46691895 127.61775208 C133.63790564 148.15903635 137.48769322 168.57297858 141.3460083 188.99403381 C141.57427307 190.20361252 141.80253784 191.41319122 142.03771973 192.65942383 C142.48852919 195.0475166 142.94029665 197.43542875 143.39306641 199.82315063 C144.45489935 205.45515799 145.48155229 211.08920623 146.42510986 216.74232483 C146.68727798 218.30631516 146.68727798 218.30631516 146.95474243 219.90190125 C147.27484099 221.83230652 147.58812481 223.76386124 147.89279175 225.69676208 C148.10722427 226.99234543 148.10722427 226.99234543 148.32598877 228.31410217 C148.44364594 229.053591 148.5613031 229.79307983 148.68252563 230.55497742 C149.56044213 234.17299884 150.99775598 237.63429 152.30499268 241.12025452 C238.76499268 241.12025452 325.22499268 241.12025452 414.30499268 241.12025452 C416.61499268 229.57025452 418.92499268 218.02025452 421.30499268 206.12025452 C424.36749268 193.12025452 424.36749268 193.12025452 425.84405518 187.12806702 C427.40662992 180.77137108 428.83423755 174.38767382 430.24249268 167.99525452 C430.60890869 166.33296814 430.60890869 166.33296814 430.98272705 164.63710022 C431.48957163 162.33770434 431.99640738 160.03830651 432.50323486 157.73890686 C433.79201152 151.92214449 435.10358201 146.11056147 436.41729736 140.2993927 C436.86339471 138.32588366 437.30884314 136.35222898 437.75421143 134.3785553 C439.11063361 128.37425821 440.47455664 122.37190611 441.85968018 116.37416077 C442.21244019 114.84142517 442.21244019 114.84142517 442.57232666 113.27772522 C443.00649991 111.39409344 443.44334299 109.51107426 443.88336182 107.62879944 C444.07277344 106.80613586 444.26218506 105.98347229 444.45733643 105.13587952 C444.70471558 104.07288635 444.70471558 104.07288635 444.95709229 102.98841858 C445.39653182 100.94541901 445.39653182 100.94541901 445.30499268 98.12025452 C340.03499268 98.12025452 234.76499268 98.12025452 126.30499268 98.12025452 Z " fill="#1C1B19" transform="translate(26.69500732421875,14.879745483398438)"/>
<path d="M0 0 C0 0.66 0 1.32 0 2 C0.58910156 2.26554687 1.17820312 2.53109375 1.78515625 2.8046875 C11.89086857 8.25856399 16.8171556 19.56214262 20 30 C23.04751962 42.69463469 20.59544766 55.07711725 14.1875 66.3125 C13.15414507 67.89442607 12.09247439 69.45830865 11 71 C10.52175781 71.68578125 10.04351562 72.3715625 9.55078125 73.078125 C3.05362673 81.39186429 -7.65321815 88.3858354 -18.01953125 90.63671875 C-33.98756231 92.58301873 -46.63747904 89.77435644 -60.00390625 80.62890625 C-68.61882109 73.82562898 -75.59390219 62.64138504 -77.68359375 51.81640625 C-78.77037814 42.14268348 -79.29233267 31.94997025 -75 23 C-74.53013672 21.95972656 -74.53013672 21.95972656 -74.05078125 20.8984375 C-72.05306847 16.6819212 -69.80056823 12.73409098 -67 9 C-66.34 9 -65.68 9 -65 9 C-64.731875 8.360625 -64.46375 7.72125 -64.1875 7.0625 C-63 5 -63 5 -60 4 C-60 3.34 -60 2.68 -60 2 C-40.99814399 -11.34309686 -19.80637735 -12.10389727 0 0 Z M-41.6875 28.875 C-45.93939101 34.62079867 -46.91327855 38.88492294 -46 46 C-44.91881291 48.92390596 -43.59962783 51.30062804 -42 54 C-41.34 54 -40.68 54 -40 54 C-40 54.66 -40 55.32 -40 56 C-34.61883136 59.34649791 -28.08636812 58.57325095 -22 58 C-17.46461135 55.88869839 -14.8346377 53.09447668 -12 49 C-10.14195582 43.42586747 -10.19368616 38.05724432 -12.6875 32.6875 C-15.18446987 28.24253945 -18.12822469 25.6239251 -23 24 C-24.78879802 23.8809314 -26.5822856 23.82477887 -28.375 23.8125 C-29.31085938 23.79832031 -30.24671875 23.78414063 -31.2109375 23.76953125 C-36.00326878 24.16553622 -38.39931239 25.35740395 -41.6875 28.875 Z " fill="#1F1E1C" transform="translate(236,363)"/>
<path d="M0 0 C14.1244734 1.23898889 28.17173589 6.28097042 37.5625 17.3125 C44.6616764 27.52732198 49.15768956 37.38976716 49.125 49.875 C49.12258301 50.83937988 49.12016602 51.80375977 49.11767578 52.79736328 C48.77665469 66.1863418 43.66995098 77.1571874 34.2421875 86.6484375 C29.41175209 91.21297739 24.8274801 95.006801 18.5625 97.3125 C17.76585937 97.60898437 16.96921875 97.90546875 16.1484375 98.2109375 C3.20372699 102.37310106 -10.0260144 101.2127518 -22.21875 95.4921875 C-35.58233407 88.3869016 -43.70242766 76.49906093 -48.8125 62.5625 C-51.9071548 47.31255159 -48.2442899 34.38180565 -40.4375 21.3125 C-39.7775 20.3225 -39.1175 19.3325 -38.4375 18.3125 C-37.7775 18.3125 -37.1175 18.3125 -36.4375 18.3125 C-36.4375 17.6525 -36.4375 16.9925 -36.4375 16.3125 C-35.7775 16.3125 -35.1175 16.3125 -34.4375 16.3125 C-34.169375 15.673125 -33.90125 15.03375 -33.625 14.375 C-32.4375 12.3125 -32.4375 12.3125 -29.4375 11.3125 C-29.4375 10.6525 -29.4375 9.9925 -29.4375 9.3125 C-19.59804474 3.86877771 -11.29920372 1.02720034 0 0 Z M-13.625 38.5625 C-17.21261848 43.0470231 -18.49731496 46.42832889 -18.3125 52.25 C-17.63780147 56.57306834 -15.7941525 59.66348968 -13.4375 63.3125 C-12.7775 63.3125 -12.1175 63.3125 -11.4375 63.3125 C-11.4375 63.9725 -11.4375 64.6325 -11.4375 65.3125 C-4.90460489 68.32122784 2.27358306 68.42838253 9.0625 66.125 C14.21360555 62.39044847 16.41608016 58.56569915 17.5625 52.3125 C17.48900817 47.48653647 16.90680858 43.56876517 14.5625 39.3125 C13.9025 39.3125 13.2425 39.3125 12.5625 39.3125 C12.5625 38.6525 12.5625 37.9925 12.5625 37.3125 C7.81327567 33.07212113 3.08087683 33.06428181 -3.04296875 33.171875 C-7.97842203 33.46172217 -10.34871716 35.0033726 -13.625 38.5625 Z " fill="#1D1C1B" transform="translate(401.4375,353.6875)"/>
<path d="M0 0 C0 0.33 0 0.66 0 1 C-15.84 1.495 -15.84 1.495 -32 2 C-24.75300797 -5.24699203 -8.96675545 -1.81605174 0 0 Z " fill="#8A8A8A" transform="translate(416,356)"/>
<path d="M0 0 C0.33 0 0.66 0 1 0 C1 2.64 1 5.28 1 8 C1.66 8 2.32 8 3 8 C3 7.34 3 6.68 3 6 C3.66 6 4.32 6 5 6 C5.33 7.65 5.66 9.3 6 11 C5.01 11.33 4.02 11.66 3 12 C3.33 13.32 3.66 14.64 4 16 C3.34 16 2.68 16 2 16 C-1.62870159 5.62642369 -1.62870159 5.62642369 0 0 Z " fill="#494846" transform="translate(9,25)"/>
<path d="M0 0 C0.66 0 1.32 0 2 0 C0.62845496 2.95409701 -0.98863724 5.44008376 -3 8 C-4.32 7.34 -5.64 6.68 -7 6 C-6.01 5.67 -5.02 5.34 -4 5 C-2.66172696 3.33729713 -1.32810215 1.67083819 0 0 Z " fill="#3E3E3E" transform="translate(415,415)"/>
<path d="M0 0 C0.66 0 1.32 0 2 0 C1.875 1.8125 1.875 1.8125 1 4 C-2.0625 5.75 -2.0625 5.75 -5 7 C-4.1875 5.0625 -4.1875 5.0625 -3 3 C-2.01 2.67 -1.02 2.34 0 2 C0 1.34 0 0.68 0 0 Z " fill="#605F5C" transform="translate(176,365)"/>
<path d="M0 0 C0.66 0.33 1.32 0.66 2 1 C0.47793991 3.62901288 -0.84365964 5.84365964 -3 8 C-3.66 7.67 -4.32 7.34 -5 7 C-5 6.34 -5 5.68 -5 5 C-4.34 5 -3.68 5 -3 5 C-2.5359375 4.0409375 -2.5359375 4.0409375 -2.0625 3.0625 C-1 1 -1 1 0 0 Z " fill="#747471" transform="translate(370,365)"/>
</svg>
