<?xml version="1.0" encoding="UTF-8"?>
<svg version="1.1" xmlns="http://www.w3.org/2000/svg" width="544" height="544">
<path d="M0 0 C1.74854827 1.29880581 3.51506408 2.56805513 5.28710938 3.83447266 C13.29272298 9.70012416 20.31792776 16.54392304 27.33398438 23.53369141 C28.27008545 24.4642334 29.20618652 25.39477539 30.1706543 26.35351562 C35.52214719 31.76116823 40.3506911 37.31427965 44.89648438 43.40869141 C46.14243649 44.93284276 47.39159642 46.45438877 48.64648438 47.97119141 C57.35865136 58.85718729 64.8718081 70.60197167 71.85986328 82.64990234 C72.82532737 84.28796247 73.83395114 85.90037199 74.84570312 87.51025391 C92.72260935 116.73700121 101.05484788 151.14625677 105.99707031 184.66113281 C106.44453897 187.69344699 106.92465024 190.49318901 107.89648438 193.40869141 C109.02269705 202.93320887 108.98188965 212.40779536 108.65454102 221.97192383 C108.58278481 224.13230709 108.52922063 226.29268881 108.4765625 228.45361328 C108.43402076 229.83841244 108.39044137 231.22318021 108.34570312 232.60791016 C108.28902466 234.46162231 108.28902466 234.46162231 108.23120117 236.3527832 C107.89648438 239.40869141 107.89648438 239.40869141 105.89648438 242.40869141 C105.36539168 244.99707268 105.36539168 244.99707268 105.07226562 247.94775391 C104.93457764 249.07310547 104.79688965 250.19845703 104.6550293 251.35791016 C104.50783447 252.57091797 104.36063965 253.78392578 104.20898438 255.03369141 C102.36426912 268.95282507 99.12618063 282.04138482 94.89648438 295.40869141 C94.6299707 296.28428711 94.36345703 297.15988281 94.08886719 298.06201172 C83.19847394 333.63000875 59.3997087 371.41432899 32.89648438 397.40869141 C32.03603516 398.28654297 32.03603516 398.28654297 31.15820312 399.18212891 C27.56721942 402.83548702 23.85175725 406.27340939 19.96679688 409.61181641 C18.61019654 410.78924312 17.2706938 411.98673089 15.95117188 413.20556641 C-9.69190505 436.80109727 -42.0404121 453.52752628 -74.66992188 465.17822266 C-76.71199168 465.91002242 -78.7452657 466.66860491 -80.75585938 467.48291016 C-90.48320219 471.37077387 -100.88540521 473.24619758 -111.10351562 475.40869141 C-111.94188965 475.59125488 -112.78026367 475.77381836 -113.64404297 475.96191406 C-167.81740449 487.39650343 -231.3650981 476.28561232 -280.05517578 450.48144531 C-282.23841544 449.33804185 -284.44002929 448.23704463 -286.64648438 447.13916016 C-303.79769683 438.50785095 -319.30925627 427.60626783 -334.10351562 415.40869141 C-334.70035156 414.92013672 -335.2971875 414.43158203 -335.91210938 413.92822266 C-343.62925295 407.58156546 -350.62645217 401.05031779 -357.10351562 393.40869141 C-358.2282325 392.15843665 -359.35322309 390.90842806 -360.47851562 389.65869141 C-372.84855207 375.41182185 -384.26061415 360.06758996 -393.37304688 343.53369141 C-394.89427495 340.78655266 -396.49920051 338.13109585 -398.16601562 335.47119141 C-404.74255717 324.52811143 -409.32194955 312.76905548 -413.33789062 300.69287109 C-413.89256228 299.03805348 -414.46222561 297.38823622 -415.04101562 295.74169922 C-424.5640068 268.22981448 -427.21328539 240.75087972 -427.41601562 211.84619141 C-427.42591522 210.94356567 -427.43581482 210.04093994 -427.4460144 209.11096191 C-427.56882161 195.6184211 -426.34224964 182.70722109 -424.10351562 169.40869141 C-423.96792236 168.57356018 -423.8323291 167.73842896 -423.69262695 166.87799072 C-418.96008682 137.77372571 -407.77215246 107.37796294 -392.10351562 82.40869141 C-391.34571074 80.99618434 -390.59552468 79.57955981 -389.85351562 78.15869141 C-359.78686574 23.96087915 -306.20778699 -16.98505626 -248.03271484 -36.921875 C-246.04664581 -37.61104246 -244.07786011 -38.33922117 -242.10742188 -39.07177734 C-161.94143275 -68.12879612 -67.69947327 -50.44306982 0 0 Z " fill="#EFF1F0" transform="translate(431.103515625,60.59130859375)"/>
<path d="M0 0 C1.74854827 1.29880581 3.51506408 2.56805513 5.28710938 3.83447266 C13.29272298 9.70012416 20.31792776 16.54392304 27.33398438 23.53369141 C28.27008545 24.4642334 29.20618652 25.39477539 30.1706543 26.35351562 C35.52214719 31.76116823 40.3506911 37.31427965 44.89648438 43.40869141 C46.14243649 44.93284276 47.39159642 46.45438877 48.64648438 47.97119141 C57.35865136 58.85718729 64.8718081 70.60197167 71.85986328 82.64990234 C72.82532737 84.28796247 73.83395114 85.90037199 74.84570312 87.51025391 C92.72260935 116.73700121 101.05484788 151.14625677 105.99707031 184.66113281 C106.44453897 187.69344699 106.92465024 190.49318901 107.89648438 193.40869141 C109.02269705 202.93320887 108.98188965 212.40779536 108.65454102 221.97192383 C108.58278481 224.13230709 108.52922063 226.29268881 108.4765625 228.45361328 C108.43402076 229.83841244 108.39044137 231.22318021 108.34570312 232.60791016 C108.28902466 234.46162231 108.28902466 234.46162231 108.23120117 236.3527832 C107.89648438 239.40869141 107.89648438 239.40869141 105.89648438 242.40869141 C105.36539168 244.99707268 105.36539168 244.99707268 105.07226562 247.94775391 C104.93457764 249.07310547 104.79688965 250.19845703 104.6550293 251.35791016 C104.50783447 252.57091797 104.36063965 253.78392578 104.20898438 255.03369141 C102.36426912 268.95282507 99.12618063 282.04138482 94.89648438 295.40869141 C94.6299707 296.28428711 94.36345703 297.15988281 94.08886719 298.06201172 C83.19847394 333.63000875 59.3997087 371.41432899 32.89648438 397.40869141 C32.03603516 398.28654297 32.03603516 398.28654297 31.15820312 399.18212891 C27.56721942 402.83548702 23.85175725 406.27340939 19.96679688 409.61181641 C18.61019654 410.78924312 17.2706938 411.98673089 15.95117188 413.20556641 C-9.69190505 436.80109727 -42.0404121 453.52752628 -74.66992188 465.17822266 C-76.71199168 465.91002242 -78.7452657 466.66860491 -80.75585938 467.48291016 C-90.48320219 471.37077387 -100.88540521 473.24619758 -111.10351562 475.40869141 C-111.94188965 475.59125488 -112.78026367 475.77381836 -113.64404297 475.96191406 C-167.81740449 487.39650343 -231.3650981 476.28561232 -280.05517578 450.48144531 C-282.23841544 449.33804185 -284.44002929 448.23704463 -286.64648438 447.13916016 C-303.79769683 438.50785095 -319.30925627 427.60626783 -334.10351562 415.40869141 C-334.70035156 414.92013672 -335.2971875 414.43158203 -335.91210938 413.92822266 C-343.62925295 407.58156546 -350.62645217 401.05031779 -357.10351562 393.40869141 C-358.2282325 392.15843665 -359.35322309 390.90842806 -360.47851562 389.65869141 C-372.84855207 375.41182185 -384.26061415 360.06758996 -393.37304688 343.53369141 C-394.89427495 340.78655266 -396.49920051 338.13109585 -398.16601562 335.47119141 C-404.74255717 324.52811143 -409.32194955 312.76905548 -413.33789062 300.69287109 C-413.89256228 299.03805348 -414.46222561 297.38823622 -415.04101562 295.74169922 C-424.5640068 268.22981448 -427.21328539 240.75087972 -427.41601562 211.84619141 C-427.42591522 210.94356567 -427.43581482 210.04093994 -427.4460144 209.11096191 C-427.56882161 195.6184211 -426.34224964 182.70722109 -424.10351562 169.40869141 C-423.96792236 168.57356018 -423.8323291 167.73842896 -423.69262695 166.87799072 C-418.96008682 137.77372571 -407.77215246 107.37796294 -392.10351562 82.40869141 C-391.34571074 80.99618434 -390.59552468 79.57955981 -389.85351562 78.15869141 C-359.78686574 23.96087915 -306.20778699 -16.98505626 -248.03271484 -36.921875 C-246.04664581 -37.61104246 -244.07786011 -38.33922117 -242.10742188 -39.07177734 C-161.94143275 -68.12879612 -67.69947327 -50.44306982 0 0 Z M-328.47851562 49.09619141 C-329.13239258 49.70156738 -329.78626953 50.30694336 -330.45996094 50.93066406 C-351.97983887 71.16241889 -368.19603638 98.19715512 -378.67773438 125.67822266 C-379.60535416 128.10528264 -380.56480811 130.52049288 -381.56054688 132.92041016 C-385.02985638 141.53418389 -387.54709416 150.28979158 -389.85351562 159.28369141 C-390.14734131 160.40541748 -390.44116699 161.52714355 -390.74389648 162.68286133 C-394.89643586 179.43836371 -395.50953304 196.21923662 -395.47851562 213.40869141 C-395.47896881 214.39093689 -395.479422 215.37318237 -395.47988892 216.38519287 C-395.4533232 236.04342196 -393.50071132 254.45259892 -388.10351562 273.40869141 C-387.90717529 274.11912598 -387.71083496 274.82956055 -387.50854492 275.56152344 C-377.37687865 312.1805839 -360.07349106 344.49608001 -334.10351562 372.40869141 C-332.89031872 373.80029962 -331.68175348 375.19596328 -330.47851562 376.59619141 C-323.97403639 384.02139601 -316.84827527 390.29534078 -309.10351562 396.40869141 C-308.4709082 396.91239258 -307.83830078 397.41609375 -307.18652344 397.93505859 C-297.56355625 405.57182328 -287.85141084 412.45783657 -277.10351562 418.40869141 C-276.35183105 418.83359863 -275.60014648 419.25850586 -274.82568359 419.69628906 C-255.11386541 430.77845429 -234.33861461 439.12147432 -212.22363281 443.94140625 C-209.10844027 444.62801133 -206.01520476 445.40357719 -202.91601562 446.15869141 C-194.22355388 448.24974514 -185.56602694 448.57465902 -176.65820312 448.61181641 C-175.57129181 448.61751648 -174.48438049 448.62321655 -173.36453247 448.62908936 C-171.06676187 448.63849828 -168.76897802 448.64505691 -166.47119141 448.64892578 C-163.03717848 448.65852738 -159.60379209 448.68954739 -156.16992188 448.72119141 C-137.70125229 448.8104056 -119.30384326 447.54978239 -101.35351562 442.90869141 C-99.89220215 442.53248657 -99.89220215 442.53248657 -98.40136719 442.14868164 C-69.59172426 434.31123438 -40.64021936 419.81023702 -17.10351562 401.40869141 C-16.5646875 400.98861816 -16.02585937 400.56854492 -15.47070312 400.13574219 C-12.28626894 397.6304006 -9.18453416 395.03944615 -6.10351562 392.40869141 C-5.30816406 391.75900391 -4.5128125 391.10931641 -3.69335938 390.43994141 C-2.96246094 389.83150391 -2.2315625 389.22306641 -1.47851562 388.59619141 C-0.846875 388.07412109 -0.21523438 387.55205078 0.43554688 387.01416016 C2.1209975 385.16196709 2.36342687 383.81247902 2.89648438 381.40869141 C4.21295556 380.70931609 5.54670589 380.04140007 6.89648438 379.40869141 C7.22648437 378.41869141 7.55648438 377.42869141 7.89648438 376.40869141 C9.22981771 375.74202474 10.56315104 375.07535807 11.89648438 374.40869141 C30.17594709 356.95593806 42.94698909 334.95628809 53.89648438 312.40869141 C54.25323242 311.6784375 54.60998047 310.94818359 54.97753906 310.19580078 C63.91232105 291.64515012 69.20041479 271.59837779 72.89648438 251.40869141 C73.02250031 250.74545868 73.14851624 250.08222595 73.27835083 249.39889526 C75.6638391 236.66271736 76.42119342 224.28980379 76.33398438 211.34619141 C76.33160767 210.41180237 76.32923096 209.47741333 76.32678223 208.51470947 C76.26582541 193.14015495 75.09613019 178.48130865 71.89648438 163.40869141 C71.60310747 161.86213986 71.3113358 160.31528257 71.02148438 158.76806641 C68.76647609 147.44174565 64.46719114 136.97531433 59.89648438 126.40869141 C59.5282959 125.55275391 59.16010742 124.69681641 58.78076172 123.81494141 C44.0099168 89.68587302 23.12294384 57.93989538 -6.41162109 34.74560547 C-8.34365942 33.21893276 -10.25584827 31.66875896 -12.16992188 30.11962891 C-22.33310422 21.97112489 -32.80794366 14.88790602 -44.10351562 8.40869141 C-45.16699219 7.79123047 -46.23046875 7.17376953 -47.32617188 6.53759766 C-52.250894 3.76008208 -57.19765709 1.52542194 -62.45410156 -0.54516602 C-64.94280278 -1.52784983 -67.41884067 -2.53648859 -69.89257812 -3.55615234 C-161.31590748 -41.01061836 -257.11757715 -17.28569225 -328.47851562 49.09619141 Z " fill="#1E1E20" transform="translate(431.103515625,60.59130859375)"/>
<path d="M0 0 C0.66898315 -0.00004028 1.33796631 -0.00008057 2.02722168 -0.00012207 C16.21281885 0.04973789 29.94508051 1.62790217 43.625 5.4375 C44.48996094 5.65148437 45.35492188 5.86546875 46.24609375 6.0859375 C72.39933437 12.69225385 98.342985 25.66490461 118.625 43.4375 C119.69435615 44.32823916 120.76610282 45.21611389 121.83984375 46.1015625 C134.7329662 56.80729498 147.4805079 68.28581501 156.625 82.4375 C157.29402344 83.43136719 157.96304687 84.42523438 158.65234375 85.44921875 C163.625 92.98205446 163.625 92.98205446 163.625 96.4375 C164.17027344 96.08816406 164.71554687 95.73882812 165.27734375 95.37890625 C170.87619443 92.00045447 175.09551512 90.74842785 181.625 90.4375 C185.32402396 95.90562237 185.66735404 100.86015497 185.88685608 107.36320496 C186.29722233 119.0385303 188.40200347 130.20273046 190.68920898 141.63208008 C192.8247236 152.39998972 194.13580637 162.43813614 193.625 173.4375 C184.77828467 172.79643367 184.77828467 172.79643367 181.625 169.4375 C179.31511685 168.69363932 176.98184056 168.01559297 174.625 167.4375 C174.625 166.7775 174.625 166.1175 174.625 165.4375 C173.74102539 165.32212891 172.85705078 165.20675781 171.94628906 165.08789062 C168.70119607 164.45242108 166.40488036 163.54296289 163.484375 162.03125 C162.02028198 161.29273804 162.02028198 161.29273804 160.52661133 160.53930664 C158.96656372 159.74641235 158.96656372 159.74641235 157.375 158.9375 C147.20396042 153.87729258 136.97369383 149.84963705 126.12988281 146.46875 C120.27587258 144.59399633 115.86378061 142.98364582 111.625 138.4375 C110.75 134.625 110.75 134.625 110.625 131.4375 C118.69869003 124.34840632 130.13143099 122.29411788 140.625 121.4375 C129.08787362 97.04622368 108.26715294 76.49331698 85.625 62.4375 C84.83657715 61.94282227 84.0481543 61.44814453 83.23583984 60.93847656 C47.76203409 38.91166987 2.6423351 32.00969438 -38.19921875 41.2434082 C-40.94212342 41.92331919 -43.65897415 42.65759493 -46.375 43.4375 C-47.17615234 43.66743652 -47.97730469 43.89737305 -48.80273438 44.13427734 C-70.94420725 50.75703373 -91.33107448 63.00047629 -108.49609375 78.33203125 C-113.12075527 82.4375 -113.12075527 82.4375 -116.375 82.4375 C-116.63410156 83.01757812 -116.89320313 83.59765625 -117.16015625 84.1953125 C-118.46962176 86.61213952 -119.93583897 88.30708676 -121.8125 90.3125 C-140.43906251 110.92634495 -153.40041281 133.19762327 -162.375 159.4375 C-162.61879395 160.13375488 -162.86258789 160.83000977 -163.11376953 161.54736328 C-167.20955188 173.3166892 -170.10747335 185.46091945 -170.6015625 197.95703125 C-170.63024414 198.67955078 -170.65892578 199.40207031 -170.68847656 200.14648438 C-170.7463252 202.12435688 -170.76133547 204.10334996 -170.7734375 206.08203125 C-171.53245345 210.31576308 -173.09382269 211.75605449 -176.375 214.4375 C-179.01958379 215.75979189 -181.05261301 215.53427194 -184 215.5 C-185.00289062 215.49097656 -186.00578125 215.48195313 -187.0390625 215.47265625 C-188.19535156 215.45525391 -188.19535156 215.45525391 -189.375 215.4375 C-189.705 214.4475 -190.035 213.4575 -190.375 212.4375 C-193.675 212.1075 -196.975 211.7775 -200.375 211.4375 C-203.2155268 197.25777349 -201.55011998 182.3912537 -198.375 168.4375 C-198.10091309 167.2117627 -197.82682617 165.98602539 -197.54443359 164.72314453 C-196.74019411 161.14562574 -195.91451058 157.57348685 -195.07641602 154.00375366 C-194.74016793 152.57004693 -194.40672072 151.1356797 -194.07641602 149.70059204 C-188.34153578 124.95344791 -176.65748617 103.5905495 -161.375 83.4375 C-160.61703125 82.41269531 -159.8590625 81.38789063 -159.078125 80.33203125 C-147.2848398 64.52122715 -133.87484248 49.93562572 -116.89453125 39.703125 C-114.15771425 38.01868864 -111.69257673 36.12604909 -109.19140625 34.109375 C-103.94474462 29.97225419 -98.32765618 26.6863958 -92.5 23.4375 C-91.4059082 22.82664551 -90.31181641 22.21579102 -89.18457031 21.58642578 C-79.87311204 16.50164724 -70.48261874 12.59947605 -60.375 9.4375 C-59.40079102 9.1178125 -58.42658203 8.798125 -57.42285156 8.46875 C-38.73073826 2.46560827 -19.56745982 -0.04860498 0 0 Z " fill="#1C1D1E" transform="translate(272.375,68.5625)"/>
<path d="M0 0 C0.86560547 -0.00064453 1.73121094 -0.00128906 2.62304688 -0.00195312 C3.52474609 0.01802734 4.42644531 0.03800781 5.35546875 0.05859375 C6.24556641 0.05150391 7.13566406 0.04441406 8.05273438 0.03710938 C13.30432389 0.08771772 16.96778725 0.64511288 21.54296875 3.49609375 C21.89498905 35.4517143 16.55298853 63.34628527 3.54296875 92.49609375 C3.0840625 93.54152344 2.62515625 94.58695312 2.15234375 95.6640625 C-3.98724256 108.77540797 -12.30568068 121.87302193 -22.37890625 132.30859375 C-24.57368974 134.61889216 -26.49793866 137.04616966 -28.45703125 139.55859375 C-39.705225 153.34544233 -52.40014676 165.02987501 -67.45703125 174.49609375 C-68.36904297 175.07520508 -69.28105469 175.65431641 -70.22070312 176.25097656 C-82.76109235 184.12934069 -95.04675057 190.56429084 -109.25244141 194.82568359 C-111.55089559 195.52463766 -113.82541359 196.27857289 -116.1015625 197.046875 C-132.50296863 202.55078616 -148.73921801 206.61093817 -166.07421875 206.69921875 C-166.97085236 206.70491882 -167.86748596 206.7106189 -168.79129028 206.7164917 C-170.68213749 206.72588288 -172.57300063 206.73245207 -174.46386719 206.73632812 C-177.29002267 206.74595072 -180.11542332 206.77699646 -182.94140625 206.80859375 C-224.99855768 207.05234733 -263.65853242 191.30929876 -296.45703125 165.49609375 C-297.29878906 164.85929688 -298.14054687 164.2225 -299.0078125 163.56640625 C-313.20305287 152.49454957 -325.75618509 139.05948596 -336.55859375 124.703125 C-337.18507813 123.97480469 -337.8115625 123.24648438 -338.45703125 122.49609375 C-339.11703125 122.49609375 -339.77703125 122.49609375 -340.45703125 122.49609375 C-340.79476562 123.12257813 -341.1325 123.7490625 -341.48046875 124.39453125 C-341.92648437 125.21179688 -342.3725 126.0290625 -342.83203125 126.87109375 C-343.27289063 127.68320312 -343.71375 128.4953125 -344.16796875 129.33203125 C-345.45703125 131.49609375 -345.45703125 131.49609375 -347.45703125 133.49609375 C-349.953125 133.83203125 -349.953125 133.83203125 -352.89453125 133.87109375 C-353.86261719 133.89945313 -354.83070313 133.9278125 -355.828125 133.95703125 C-358.45703125 133.49609375 -358.45703125 133.49609375 -360.2421875 131.72265625 C-362.34391201 127.87062097 -362.5881983 124.39155599 -362.66796875 120.04296875 C-362.6942334 118.96072021 -362.72049805 117.87847168 -362.74755859 116.76342773 C-362.77543457 115.60270752 -362.80331055 114.4419873 -362.83203125 113.24609375 C-363.35890185 96.09288963 -365.54675857 79.36410587 -368.53369141 62.484375 C-369.49384911 56.84164242 -370.0773318 51.2100161 -369.45703125 45.49609375 C-368.96203125 45.00109375 -368.96203125 45.00109375 -368.45703125 44.49609375 C-360.84991954 44.75682137 -355.23970827 47.06772151 -348.45703125 50.37109375 C-346.32896941 51.37678873 -344.20003431 52.38063757 -342.0703125 53.3828125 C-340.98057129 53.8989209 -339.89083008 54.4150293 -338.76806641 54.94677734 C-333.43090813 57.44416758 -328.0411575 59.81809202 -322.64453125 62.18359375 C-321.09233887 62.86699829 -321.09233887 62.86699829 -319.50878906 63.56420898 C-314.63743929 65.70052934 -309.75518518 67.80043904 -304.8359375 69.82421875 C-303.53136597 70.36236206 -303.53136597 70.36236206 -302.20043945 70.91137695 C-300.59672038 71.56884996 -298.98998691 72.21904254 -297.37963867 72.86010742 C-293.20532855 74.56715694 -289.74507401 76.30344874 -286.45703125 79.49609375 C-285.77105682 83.07840468 -286.14419607 84.87042339 -287.76953125 88.12109375 C-295.50383683 94.95606147 -306.60770925 95.48590688 -316.45703125 96.49609375 C-310.50794758 105.19475391 -304.64382144 113.76101949 -297.39453125 121.4375 C-295.68678239 123.25198317 -294.13498605 125.11298845 -292.58203125 127.05859375 C-288.47989135 131.87267529 -283.43589979 135.63629795 -278.45703125 139.49609375 C-277.61269531 140.15609375 -276.76835937 140.81609375 -275.8984375 141.49609375 C-264.83916184 149.84525772 -253.06764695 157.19275664 -239.80078125 161.36328125 C-237.13689416 162.26576636 -234.77483998 163.26654306 -232.24609375 164.46484375 C-227.08912119 166.79817315 -221.86045578 167.99155113 -216.33203125 169.12109375 C-215.3164917 169.3327417 -214.30095215 169.54438965 -213.25463867 169.76245117 C-185.84794423 175.36129395 -156.16773573 175.85479639 -129.45703125 166.49609375 C-127.66203661 165.90968527 -125.86640342 165.32522957 -124.0703125 164.7421875 C-112.35825982 160.87782919 -101.19166534 156.59125256 -90.45703125 150.49609375 C-89.78591309 150.11727051 -89.11479492 149.73844727 -88.42333984 149.34814453 C-78.6579316 143.75120593 -70.4324854 137.41324779 -62.45703125 129.49609375 C-61.6578125 128.73425781 -60.85859375 127.97242188 -60.03515625 127.1875 C-47.26019846 114.8310322 -33.48612376 98.48717263 -27.45703125 81.49609375 C-26.79703125 81.49609375 -26.13703125 81.49609375 -25.45703125 81.49609375 C-25.08578125 80.29984375 -24.71453125 79.10359375 -24.33203125 77.87109375 C-22.93717793 73.65332299 -21.24360885 69.62505769 -19.45703125 65.55859375 C-17.01722144 59.93799486 -14.99642808 54.4218442 -13.45703125 48.49609375 C-13.07417969 47.02849609 -13.07417969 47.02849609 -12.68359375 45.53125 C-11.9176258 42.52425699 -11.17171052 39.5157072 -10.45703125 36.49609375 C-10.2856665 35.84954834 -10.11430176 35.20300293 -9.93774414 34.53686523 C-8.11691949 27.25111157 -8.07744766 20.0604196 -7.97851562 12.58398438 C-7.95208984 11.59978516 -7.92566406 10.61558594 -7.8984375 9.6015625 C-7.88498291 8.71621826 -7.87152832 7.83087402 -7.85766602 6.91870117 C-7.04418733 1.99965854 -4.9366454 -0.01166816 0 0 Z " fill="#0F1011" transform="translate(448.45703125,272.50390625)"/>
<path d="M0 0 C0.33 0 0.66 0 1 0 C1.01981934 1.00039307 1.03963867 2.00078613 1.06005859 3.03149414 C2.31893616 64.53088836 12.08004563 121.74776521 49 173 C48.67 173.66 48.34 174.32 48 175 C42.66669232 168.04967882 38.11674904 160.97811703 33.87109375 153.3359375 C32.29434993 150.5247909 30.6475105 147.79307379 28.9375 145.0625 C22.36095845 134.11942002 17.78156607 122.36036407 13.765625 110.28417969 C13.21095334 108.62936208 12.64129001 106.97954481 12.0625 105.33300781 C0.06118731 70.66126178 -0.31980216 36.2557247 0 0 Z " fill="#D0D1D0" transform="translate(4,251)"/>
<path d="M0 0 C2.05535942 3.50581703 2.6219167 6.85562859 3.25390625 10.84765625 C3.35968491 11.50076279 3.46546356 12.15386932 3.57444763 12.82676697 C3.90999264 14.90440788 4.2367158 16.98330818 4.5625 19.0625 C4.89326597 21.14500254 5.22591344 23.22717548 5.56126404 25.3089447 C5.86441773 27.19501588 6.16196435 29.08198575 6.45922852 30.96899414 C6.93029963 34.03204126 6.93029963 34.03204126 8 37 C9.11764586 46.51593217 9.11239947 56.005362 8.81298828 65.56323242 C8.74892669 67.72369728 8.70825287 69.88389725 8.66796875 72.04492188 C8.62901275 73.42972784 8.58870093 74.81449649 8.546875 76.19921875 C8.51432617 77.43502686 8.48177734 78.67083496 8.44824219 79.9440918 C7.95638218 83.29736617 7.41901228 83.84882234 5 86 C5.00222061 85.39056549 5.00444122 84.78113098 5.00672913 84.15322876 C5.0288021 77.82709335 5.04391505 71.50096882 5.05493164 65.17480469 C5.05996959 62.81184444 5.06680008 60.44888732 5.07543945 58.0859375 C5.08752854 54.69530465 5.09323359 51.30471291 5.09765625 47.9140625 C5.10281754 46.85256989 5.10797882 45.79107727 5.11329651 44.69741821 C5.11337204 43.71655243 5.11344757 42.73568665 5.11352539 41.72509766 C5.115746 40.85905914 5.11796661 39.99302063 5.12025452 39.10073853 C5.13553746 36.9416034 5.13553746 36.9416034 4 35 C3.72290031 33.40450059 3.49020764 31.80115786 3.28125 30.1953125 C3.15403564 29.22408447 3.02682129 28.25285645 2.89575195 27.25219727 C2.76515381 26.22022217 2.63455566 25.18824707 2.5 24.125 C2.3661792 23.084646 2.2323584 22.04429199 2.09448242 20.97241211 C1.21142279 13.99138664 0.43810508 7.02478843 0 0 Z " fill="#DDDEDD" transform="translate(531,217)"/>
<path d="M0 0 C0.66 0 1.32 0 2 0 C4.00366625 6.01099874 2.90288558 11.17241292 1 17 C0.34 17 -0.32 17 -1 17 C-1 25.58 -1 34.16 -1 43 C-1.33 43 -1.66 43 -2 43 C-4.85417173 28.75215888 -3.05595567 14.04284392 0 0 Z " fill="#5B5B5E" transform="translate(74,237)"/>
<path d="M0 0 C0.66 0.33 1.32 0.66 2 1 C1.236875 1.5775 0.47375 2.155 -0.3125 2.75 C-3.43205503 5.36172049 -5.54455798 7.42665483 -6.6875 11.375 C-8.67654979 15.35309958 -12.08248153 17.93651502 -16 20 C-16.99 19.67 -17.98 19.34 -19 19 C-17.625 17 -17.625 17 -16 15 C-15.34 15 -14.68 15 -14 15 C-13.93554688 14.43539062 -13.87109375 13.87078125 -13.8046875 13.2890625 C-12.66836003 10.05659699 -10.69709344 8.60414765 -8.125 6.375 C-7.24070312 5.59898438 -6.35640625 4.82296875 -5.4453125 4.0234375 C-3 2 -3 2 0 0 Z " fill="#686A69" transform="translate(106,65)"/>
<path d="M0 0 C0 3 0 3 -2.0625 5.25 C-3.04067441 6.16772543 -4.01994057 7.0842879 -5 8 C-6.10654552 9.12266026 -7.21057637 10.24780289 -8.3125 11.375 C-11.38264391 14.44514391 -14.58054185 17.32071258 -17.8671875 20.15625 C-20.26432953 22.22850464 -22.63334823 24.33051222 -25 26.4375 C-26.1446875 27.45650391 -26.1446875 27.45650391 -27.3125 28.49609375 C-27.869375 28.99238281 -28.42625 29.48867188 -29 30 C-29.66 29.67 -30.32 29.34 -31 29 C-30.319375 28.3915625 -29.63875 27.783125 -28.9375 27.15625 C-21.85210897 20.74924747 -15.04116809 14.12283913 -8.34570312 7.30859375 C-7.69408203 6.64859375 -7.04246094 5.98859375 -6.37109375 5.30859375 C-5.79286865 4.71876709 -5.21464355 4.12894043 -4.61889648 3.52124023 C-3 2 -3 2 0 0 Z " fill="#C6C7C7" transform="translate(469,450)"/>
<path d="M0 0 C2 0 2 0 3.5859375 1.57421875 C4.17632812 2.27160156 4.76671875 2.96898437 5.375 3.6875 C6.00277344 4.42226563 6.63054687 5.15703125 7.27734375 5.9140625 C8.53315471 7.43470434 9.74807434 8.98938864 10.9375 10.5625 C13.94343929 14.11497371 17.4539139 16.99997169 21 20 C22.33374065 21.1453592 23.66710528 22.29115647 25 23.4375 C25.99 24.283125 26.98 25.12875 28 26 C24.58389411 26 24.21092858 25.64566922 21.7421875 23.5078125 C21.12037598 22.9720459 20.49856445 22.4362793 19.85791016 21.88427734 C19.2035498 21.30371582 18.54918945 20.7231543 17.875 20.125 C17.20645996 19.53799316 16.53791992 18.95098633 15.84912109 18.34619141 C2.00765861 6.02297584 2.00765861 6.02297584 0 0 Z " fill="#D0D1D0" transform="translate(73,451)"/>
<path d="M0 0 C2.04900411 3.50332912 2.63744802 6.86331069 3.2890625 10.84765625 C3.45128799 11.82731606 3.45128799 11.82731606 3.61679077 12.82676697 C3.84328252 14.20212739 4.06666256 15.57800345 4.28710938 16.9543457 C4.62459109 19.05994876 4.97160767 21.16380753 5.3203125 23.26757812 C7 33.5237914 7 33.5237914 7 37 C6.34 37 5.68 37 5 37 C3.83417321 34.66834642 3.61788151 32.78233513 3.28125 30.1953125 C3.15403564 29.22408447 3.02682129 28.25285645 2.89575195 27.25219727 C2.76515381 26.22022217 2.63455566 25.18824707 2.5 24.125 C2.3661792 23.084646 2.2323584 22.04429199 2.09448242 20.97241211 C1.21142279 13.99138664 0.43810508 7.02478843 0 0 Z " fill="#CDCFCE" transform="translate(531,217)"/>
<path d="M0 0 C0.66 0 1.32 0 2 0 C1.36116732 5.53654991 -3.1788733 9.4067519 -7.1875 12.875 C-10 15 -10 15 -12 15 C-12 12 -12 12 -10.390625 10.3515625 C-9.68421875 9.78179687 -8.9778125 9.21203125 -8.25 8.625 C-5.06514474 5.97470526 -2.56811918 3.25953588 0 0 Z " fill="#2F3030" transform="translate(446,430)"/>
<path d="M0 0 C1.32 0.33 2.64 0.66 4 1 C3.34 1.66 2.68 2.32 2 3 C-0.75536203 9.11716737 -1.5979334 15.35896899 -2 22 C-2.33 22 -2.66 22 -3 22 C-3.08103404 19.08277452 -3.14051081 16.16780484 -3.1875 13.25 C-3.21263672 12.425 -3.23777344 11.6 -3.26367188 10.75 C-3.33834499 4.57702246 -3.33834499 4.57702246 -1.48828125 1.421875 C-0.99714844 0.95265625 -0.50601562 0.4834375 0 0 Z " fill="#525454" transform="translate(444,273)"/>
<path d="M0 0 C4.05766511 0.15028389 6.3008948 0.40844945 9.4375 3.0625 C10.2109375 4.0215625 10.2109375 4.0215625 11 5 C10.67 5.66 10.34 6.32 10 7 C6.04 5.35 2.08 3.7 -2 2 C-1.34 1.34 -0.68 0.68 0 0 Z " fill="#BFC1C2" transform="translate(175,487)"/>
<path d="M0 0 C-2.42136104 3.12759134 -4.28578182 4.30958787 -8.125 4.875 C-10.043125 4.936875 -10.043125 4.936875 -12 5 C-12.66 4.34 -13.32 3.68 -14 3 C-12.04486839 2.303447 -10.08577524 1.61800435 -8.125 0.9375 C-7.03445313 0.55464844 -5.94390625 0.17179687 -4.8203125 -0.22265625 C-2 -1 -2 -1 0 0 Z " fill="#404241" transform="translate(333,436)"/>
<path d="M0 0 C1.25127906 3.54667178 0.72285053 5.72253438 -0.4375 9.25 C-0.72496094 10.14203125 -1.01242187 11.0340625 -1.30859375 11.953125 C-1.53675781 12.62859375 -1.76492188 13.3040625 -2 14 C-2.99 14 -3.98 14 -5 14 C-4.43981302 9.40646673 -3.42668586 3.42668586 0 0 Z " fill="#151618" transform="translate(523,352)"/>
<path d="M0 0 C1.77007714 -0.08114106 3.54122098 -0.13925505 5.3125 -0.1875 C6.29863281 -0.22230469 7.28476563 -0.25710938 8.30078125 -0.29296875 C11 0 11 0 12.85546875 1.38671875 C14 3 14 3 14 5 C12.03964825 4.55037804 10.08175691 4.09001752 8.125 3.625 C7.03445312 3.36976563 5.94390625 3.11453125 4.8203125 2.8515625 C2 2 2 2 0 0 Z " fill="#ACADAD" transform="translate(196,497)"/>
<path d="M0 0 C0.33 0 0.66 0 1 0 C1.36625971 4.51720311 1.36625971 4.51720311 -0.375 6.8125 C-2 8 -2 8 -4 8 C-4 8.66 -4 9.32 -4 10 C-6.5 11.625 -6.5 11.625 -9 13 C-7.49806525 7.65978754 -3.82517494 3.86352256 0 0 Z " fill="#CFD2D3" transform="translate(90,123)"/>
<path d="M0 0 C0.66 0 1.32 0 2 0 C2.36666667 7.33333333 2.36666667 7.33333333 0.625 10.5 C-1 12 -1 12 -3 12 C-2.01 8.04 -1.02 4.08 0 0 Z " fill="#424343" transform="translate(84,198)"/>
<path d="M0 0 C0.66 0.33 1.32 0.66 2 1 C-5.11389522 11.74259681 -5.11389522 11.74259681 -10 15 C-8.37815499 11.41486894 -6.20743761 8.41007677 -3.875 5.25 C-3.15054687 4.26515625 -2.42609375 3.2803125 -1.6796875 2.265625 C-1.12539063 1.51796875 -0.57109375 0.7703125 0 0 Z " fill="#BDBEBF" transform="translate(480,435)"/>
<path d="M0 0 C-1.63739315 5.20988728 -4.55376114 8.61159416 -9.3125 11.3125 C-10.1478125 11.6528125 -10.1478125 11.6528125 -11 12 C-9.56438314 8.81293058 -7.79733671 6.37830895 -5.5 3.75 C-4.8915625 3.04359375 -4.283125 2.3371875 -3.65625 1.609375 C-2 0 -2 0 0 0 Z " fill="#CBCDD1" transform="translate(158,151)"/>
<path d="M0 0 C0.66 0.33 1.32 0.66 2 1 C0.125 5.875 0.125 5.875 -1 7 C-2.99958364 7.04080783 -5.00045254 7.04254356 -7 7 C-4.66666667 4.66666667 -2.33333333 2.33333333 0 0 Z " fill="#363838" transform="translate(149,112)"/>
<path d="M0 0 C0.99 0 1.98 0 3 0 C1.4169423 4.2742558 -1.50568404 6.26531794 -5 9 C-5.33 8.01 -5.66 7.02 -6 6 C-4 4 -2 2 0 0 Z " fill="#C2C4C3" transform="translate(431,443)"/>
<path d="M0 0 C0.99 0.33 1.98 0.66 3 1 C3.1875 4.3125 3.1875 4.3125 3 8 C2.01 8.99 1.02 9.98 0 11 C0 7.37 0 3.74 0 0 Z " fill="#D9D9D9" transform="translate(536,292)"/>
<path d="M0 0 C1.85776765 3.13498292 2.20140476 5.37471432 2 9 C1.34 9 0.68 9 0 9 C-1.63676257 10.9600281 -1.63676257 10.9600281 -3 13 C-2.68991116 11.39536551 -2.37683713 9.79130769 -2.0625 8.1875 C-1.88847656 7.29417969 -1.71445313 6.40085938 -1.53515625 5.48046875 C-1 3 -1 3 0 0 Z " fill="#8A8A8A" transform="translate(14,200)"/>
<path d="M0 0 C0.33 0 0.66 0 1 0 C1.66 4.95 2.32 9.9 3 15 C2.34 15 1.68 15 1 15 C-0.44207941 12.11584117 -0.09394887 9.58278472 -0.0625 6.375 C-0.05347656 5.18648437 -0.04445313 3.99796875 -0.03515625 2.7734375 C-0.02355469 1.85820312 -0.01195312 0.94296875 0 0 Z " fill="#D5D7D5" transform="translate(535,239)"/>
<path d="M0 0 C6.625 0.75 6.625 0.75 10 3 C9.67 3.99 9.34 4.98 9 6 C6.03 4.35 3.06 2.7 0 1 C0 0.67 0 0.34 0 0 Z " fill="#383939" transform="translate(339,119)"/>
<path d="M0 0 C0.99 0.33 1.98 0.66 3 1 C2.1875 3.4375 2.1875 3.4375 1 6 C0.01 6.33 -0.98 6.66 -2 7 C-1.34 4.69 -0.68 2.38 0 0 Z " fill="#424343" transform="translate(421,354)"/>
<path d="M0 0 C1.485 0.99 1.485 0.99 3 2 C4.9896995 2.39013716 6.99019869 2.73202649 9 3 C9 3.99 9 4.98 9 6 C1.42857143 4.14285714 1.42857143 4.14285714 -1 1 C-0.67 0.67 -0.34 0.34 0 0 Z " fill="#4D4D4D" transform="translate(365,57)"/>
</svg>
