<?xml version="1.0" encoding="UTF-8"?>
<svg version="1.1" xmlns="http://www.w3.org/2000/svg" width="242" height="230">
<path d="M0 0 C1.45575439 0.00737183 1.45575439 0.00737183 2.94091797 0.01489258 C10.05744213 0.13113669 16.46585099 0.84756539 23.1875 3.3125 C24.17621094 3.66441406 25.16492188 4.01632813 26.18359375 4.37890625 C35.45362223 7.95701916 43.51217806 13.03768403 51.1875 19.3125 C54.41616387 17.78827031 57.3308917 15.96021187 60.3125 14 C78.41339039 2.44419978 97.31772798 -2.36993818 118.7265625 0.84375 C121.29688989 1.52522009 123.71393939 2.34074405 126.1875 3.3125 C127.00734375 3.57933594 127.8271875 3.84617187 128.671875 4.12109375 C143.63568943 9.34913451 155.83012101 21.51981563 163.1875 35.3125 C173.21028681 56.90499892 172.50548565 82.20889421 164.45703125 104.2734375 C156.11792472 125.59894292 142.93812861 142.94217453 127.1875 159.3125 C126.71666992 159.80524414 126.24583984 160.29798828 125.76074219 160.80566406 C119.30484273 167.53300989 112.53508449 173.5813841 105.1875 179.3125 C104.57132813 179.79976562 103.95515625 180.28703125 103.3203125 180.7890625 C92.99907112 188.94163837 82.41879671 196.46383377 71.1875 203.3125 C70.46014648 203.75706543 69.73279297 204.20163086 68.98339844 204.65966797 C66.83339654 205.95983483 64.67084716 207.23499756 62.5 208.5 C61.85281006 208.88704102 61.20562012 209.27408203 60.53881836 209.67285156 C56.54897065 211.93782605 53.74654023 213.07619709 49.1875 212.3125 C46.18999291 211.06796065 43.42553644 209.50926688 40.625 207.875 C39.832146 207.4227002 39.03929199 206.97040039 38.22241211 206.50439453 C31.26449106 202.47845415 24.68525383 198.04756529 18.1875 193.3125 C16.82625 192.34570312 16.82625 192.34570312 15.4375 191.359375 C3.96226788 183.1532497 -7.09748665 174.5094475 -17.30175781 164.75585938 C-18.32502583 163.77823162 -19.35319027 162.80570776 -20.38574219 161.83789062 C-44.23813949 139.42098714 -63.78898347 109.41230839 -66.03125 76.05859375 C-66.56209787 56.97018898 -62.71808559 38.53603568 -50.8125 23.3125 C-50.090625 22.301875 -49.36875 21.29125 -48.625 20.25 C-36.36221413 6.19557333 -18.18832332 -0.10911096 0 0 Z M-35.56640625 25.16015625 C-46.64447336 35.77583447 -52.49885098 49.49727577 -53.1484375 64.7578125 C-53.53571183 89.29303205 -46.5116811 110.05505885 -31.70703125 129.78515625 C-30.05546877 131.98837466 -28.48862971 134.22592487 -26.9375 136.5 C-26.23625 137.428125 -25.535 138.35625 -24.8125 139.3125 C-24.1525 139.3125 -23.4925 139.3125 -22.8125 139.3125 C-22.55742676 139.89281982 -22.30235352 140.47313965 -22.03955078 141.07104492 C-20.68513534 143.54515718 -19.17837734 145.18971002 -17.1796875 147.17578125 C-16.45523438 147.89830078 -15.73078125 148.62082031 -14.984375 149.36523438 C-14.22640625 150.11095703 -13.4684375 150.85667969 -12.6875 151.625 C-11.95273437 152.35912109 -11.21796875 153.09324219 -10.4609375 153.84960938 C-3.39528781 160.85928121 3.94809809 167.31518563 11.9375 173.25 C12.97837769 174.02585449 12.97837769 174.02585449 14.0402832 174.81738281 C24.05854569 182.2338738 34.53184864 188.86189764 45.1875 195.3125 C46.01378906 195.90417969 46.84007813 196.49585938 47.69140625 197.10546875 C51.00497315 198.70780392 52.63938315 198.16247583 56.1875 197.3125 C58.8696404 196.04183397 58.8696404 196.04183397 61.4609375 194.35546875 C62.44312256 193.74316406 63.42530762 193.13085938 64.43725586 192.5 C65.46858643 191.84 66.49991699 191.18 67.5625 190.5 C68.62799072 189.82582031 69.69348145 189.15164062 70.79125977 188.45703125 C79.01620364 183.19505282 86.90639606 177.60731533 94.57763672 171.57128906 C96.08945558 170.38916318 97.6241347 169.23643985 99.16015625 168.0859375 C99.99417969 167.45945313 100.82820312 166.83296875 101.6875 166.1875 C102.3784375 165.66929687 103.069375 165.15109375 103.78125 164.6171875 C104.2453125 164.18664062 104.709375 163.75609375 105.1875 163.3125 C105.1875 162.6525 105.1875 161.9925 105.1875 161.3125 C106.04359863 160.94318359 106.04359863 160.94318359 106.91699219 160.56640625 C109.5659281 159.10351003 111.37298546 157.38604681 113.515625 155.25 C114.31484375 154.45335937 115.1140625 153.65671875 115.9375 152.8359375 C116.7625 152.00320312 117.5875 151.17046875 118.4375 150.3125 C119.27796875 149.47976562 120.1184375 148.64703125 120.984375 147.7890625 C121.7784375 146.99242187 122.5725 146.19578125 123.390625 145.375 C124.48358887 144.27865234 124.48358887 144.27865234 125.59863281 143.16015625 C127.40483721 141.46590858 127.40483721 141.46590858 127.1875 139.3125 C127.8475 139.3125 128.5075 139.3125 129.1875 139.3125 C131.00609681 137.07770691 132.70338391 134.84149577 134.375 132.5 C134.86967773 131.81147949 135.36435547 131.12295898 135.87402344 130.41357422 C137.32118827 128.38631624 138.75540608 126.35041996 140.1875 124.3125 C141.19490234 122.90291016 141.19490234 122.90291016 142.22265625 121.46484375 C155.80505639 101.44704673 160.67220468 77.37354055 156.19921875 53.7109375 C155.00482312 48.1275836 153.06428631 43.24413368 150.1875 38.3125 C149.75695312 37.5390625 149.32640625 36.765625 148.8828125 35.96875 C142.76029303 25.86832239 134.17562633 19.3625559 123.1875 15.3125 C122.07375 14.9 120.96 14.4875 119.8125 14.0625 C102.41258338 10.46251725 84.90555448 12.87181048 69.859375 22.42578125 C63.76718252 26.85716246 58.30453098 31.78911656 53.1875 37.3125 C49.98904329 35.92277754 48.12331864 34.33790776 45.8125 31.75 C24.68608446 10.15148579 -11.75738373 4.7034441 -35.56640625 25.16015625 Z " fill="#161616" transform="translate(67.8125,17.6875)"/>
</svg>
